<svg xmlns="http://www.w3.org/2000/svg" width="30" height="30" viewBox="0 0 30 30"><defs><style>.a{fill:#eee;}</style></defs><path class="a" d="M20,15a5,5,0,0,0-5-5,5,5,0,0,0-5,5,5,5,0,0,0,5,5,5,5,0,0,0,5-5Zm2.7,0a7.423,7.423,0,0,1-2.245,5.449A7.412,7.412,0,0,1,15,22.694,7.427,7.427,0,0,1,9.55,20.448,7.416,7.416,0,0,1,7.3,15,7.416,7.416,0,0,1,9.55,9.55,7.427,7.427,0,0,1,15,7.3,7.412,7.412,0,0,1,20.448,9.55,7.423,7.423,0,0,1,22.694,15ZM24.8,6.991a1.8,1.8,0,1,1-3.066-1.269A1.8,1.8,0,0,1,24.8,6.991ZM15,2.7l-1.494-.01q-1.357-.01-2.061,0t-1.885.058a15.312,15.312,0,0,0-2.011.195A7.759,7.759,0,0,0,6.153,3.3,5.109,5.109,0,0,0,3.3,6.153a7.9,7.9,0,0,0-.361,1.4,15.312,15.312,0,0,0-.195,2.011q-.048,1.182-.058,1.885t0,2.061Q2.7,14.864,2.7,15t-.01,1.494q-.01,1.357,0,2.061t.058,1.885a15.312,15.312,0,0,0,.195,2.011A7.812,7.812,0,0,0,3.3,23.846,5.109,5.109,0,0,0,6.153,26.7a7.9,7.9,0,0,0,1.4.361,15.313,15.313,0,0,0,2.011.195q1.182.048,1.885.058t2.061,0L15,27.3l1.494.01q1.357.01,2.061,0t1.885-.058a15.313,15.313,0,0,0,2.011-.195,7.9,7.9,0,0,0,1.4-.361A5.109,5.109,0,0,0,26.7,23.846a7.9,7.9,0,0,0,.361-1.4,15.313,15.313,0,0,0,.195-2.011q.048-1.182.058-1.885t0-2.061Q27.3,15.134,27.3,15t.01-1.494q.01-1.357,0-2.061t-.058-1.885a15.313,15.313,0,0,0-.195-2.011A7.626,7.626,0,0,0,26.7,6.153,5.109,5.109,0,0,0,23.846,3.3a7.9,7.9,0,0,0-1.4-.361,15.312,15.312,0,0,0-2.011-.195q-1.182-.048-1.885-.058t-2.061,0L15,2.7ZM30,15q0,4.473-.1,6.192a9.161,9.161,0,0,1-2.422,6.289A9.161,9.161,0,0,1,21.189,29.9Q19.471,30,15,30t-6.192-.1A9.161,9.161,0,0,1,2.517,27.48,9.151,9.151,0,0,1,.1,21.191Q0,19.472,0,15T.1,8.808A9.161,9.161,0,0,1,2.52,2.518,9.154,9.154,0,0,1,8.808.1Q10.526,0,15,0t6.192.1A9.161,9.161,0,0,1,27.48,2.52,9.161,9.161,0,0,1,29.9,8.809Q30,10.528,30,15Z"/></svg>