<svg xmlns="http://www.w3.org/2000/svg" width="30" height="20" viewBox="0 0 30 20"><defs><style>.a{fill:none;}.b{fill:#ddd;}</style></defs><rect class="a" width="29.834" height="19.51" transform="translate(0.166 0.49)"/><path class="b" d="M32.173,32.222H4.327a1.118,1.118,0,0,1,0-2.222H32.172a1.118,1.118,0,0,1,0,2.222Z" transform="translate(-3.333 -12.712)"/><path class="b" d="M32.173,21.111H4.327a1.118,1.118,0,0,1,0-2.222H32.172a1.118,1.118,0,0,1,0,2.222Z" transform="translate(-3.333 -10.245)"/><path class="b" d="M32.173,10H4.327a1.058,1.058,0,0,1-.994-1.111,1.058,1.058,0,0,1,.994-1.111H32.172a1.058,1.058,0,0,1,.994,1.111A1.058,1.058,0,0,1,32.172,10Z" transform="translate(-3.333 -7.778)"/></svg>