<svg xmlns="http://www.w3.org/2000/svg" width="30" height="24.375" viewBox="0 0 30 24.375"><defs><style>.a{fill:#eee;}</style></defs><path class="a" d="M30,3.75a33.525,33.525,0,0,0-3.544.117A6.637,6.637,0,0,0,29.063,0Q28.8.175,28.2.556t-.967.6a7.721,7.721,0,0,1-.923.454,4.841,4.841,0,0,1-1.054.322A5.906,5.906,0,0,0,20.772,0a7.027,7.027,0,0,0-4.233,1.128A4.123,4.123,0,0,0,15,4.688q0,.117-.03.79t-.03,1.245A3.36,3.36,0,0,0,15,7.5,19.418,19.418,0,0,1,8.055,5.948,14.18,14.18,0,0,1,2.813,1.875a5.8,5.8,0,0,0-.937,2.813,7.084,7.084,0,0,0,.47,2.769,4.359,4.359,0,0,0,1.641,1.89q-1.171.03-2.109.03,0,4.453,4.278,5.3a5.751,5.751,0,0,1-1.641.234A5.541,5.541,0,0,1,3.371,14.8a5.119,5.119,0,0,0,2.241,2.856,7.062,7.062,0,0,0,3.763,1.1,5.306,5.306,0,0,1-1.582,1.084,7.507,7.507,0,0,1-2.081.571q-1.172.161-1.9.191t-1.934.03q-.117,0-.849.044A7.4,7.4,0,0,1,0,20.683,6.334,6.334,0,0,0,3.237,23.29a15.385,15.385,0,0,0,6.2,1.085,16.885,16.885,0,0,0,6.08-1.069,14.7,14.7,0,0,0,4.746-2.856,18.035,18.035,0,0,0,3.325-4.1,18.41,18.41,0,0,0,2.022-4.8,19.778,19.778,0,0,0,.645-4.98q0-.089.279-.16t.715-.221a7.05,7.05,0,0,0,.923-.4,3.847,3.847,0,0,0,1-.777A4.346,4.346,0,0,0,30,3.748Z"/></svg>