<svg xmlns="http://www.w3.org/2000/svg" width="30" height="20.96" viewBox="0 0 30 20.96"><defs><style>.a{fill:#eee;}</style></defs><path class="a" d="M29.377,6.25a3.76,3.76,0,0,0-2.611-2.61c-2.338-.627-11.749-.627-11.749-.627S5.63,3,3.268,3.64A3.76,3.76,0,0,0,.657,6.25,39.045,39.045,0,0,0,0,13.507a39.045,39.045,0,0,0,.653,7.228,3.76,3.76,0,0,0,2.611,2.61c2.336.627,11.749.627,11.749.627s9.386,0,11.749-.627a3.76,3.76,0,0,0,2.611-2.61A39.045,39.045,0,0,0,30,13.507a39.045,39.045,0,0,0-.626-7.257ZM12.014,18V9l7.833,4.5Z" transform="translate(-0.004 -3.013)"/></svg>